<mxfile host="app.diagrams.net" modified="2024-04-21T06:46:33.902Z" agent="Mozilla/5.0 (Macintosh; Intel Mac OS X 10_15_7) AppleWebKit/537.36 (KHTML, like Gecko) Chrome/123.0.0.0 Safari/537.36" etag="MUlACzkjB02f2JMd1hLN" version="24.2.7" type="google">
  <diagram name="Page-1" id="-q-vKgwgCR8_FKLeNQXr">
    <mxGraphModel grid="1" page="1" gridSize="10" guides="1" tooltips="1" connect="1" arrows="1" fold="1" pageScale="1" pageWidth="850" pageHeight="1100" math="0" shadow="0">
      <root>
        <mxCell id="0" />
        <mxCell id="1" parent="0" />
        <mxCell id="kzy50E7hEQIM3yluzYC2-1" value="" style="rounded=1;whiteSpace=wrap;html=1;" vertex="1" parent="1">
          <mxGeometry x="300" y="74" width="190" height="100" as="geometry" />
        </mxCell>
        <mxCell id="kzy50E7hEQIM3yluzYC2-6" value="" style="image;aspect=fixed;html=1;points=[];align=center;fontSize=12;image=img/lib/azure2/networking/DNS_Zones.svg;movable=0;resizable=0;rotatable=0;deletable=0;editable=0;locked=1;connectable=0;" vertex="1" parent="1">
          <mxGeometry x="120" y="80" width="64" height="64" as="geometry" />
        </mxCell>
        <mxCell id="kzy50E7hEQIM3yluzYC2-8" value="Go daddy" style="text;html=1;align=center;verticalAlign=middle;whiteSpace=wrap;rounded=0;movable=0;resizable=0;rotatable=0;deletable=0;editable=0;locked=1;connectable=0;" vertex="1" parent="1">
          <mxGeometry x="124" y="144" width="60" height="30" as="geometry" />
        </mxCell>
        <mxCell id="kzy50E7hEQIM3yluzYC2-11" value="" style="verticalLabelPosition=bottom;html=1;verticalAlign=top;align=center;strokeColor=none;fillColor=#00BEF2;shape=mxgraph.azure.computer;pointerEvents=1;" vertex="1" parent="1">
          <mxGeometry x="330" y="93" width="50" height="45" as="geometry" />
        </mxCell>
        <mxCell id="kzy50E7hEQIM3yluzYC2-13" value="" style="sketch=0;html=1;aspect=fixed;strokeColor=none;shadow=0;fillColor=#3B8DF1;verticalAlign=top;labelPosition=center;verticalLabelPosition=bottom;shape=mxgraph.gcp2.phone_android" vertex="1" parent="1">
          <mxGeometry x="425" y="83.35999999999996" width="36" height="64.29" as="geometry" />
        </mxCell>
        <mxCell id="kzy50E7hEQIM3yluzYC2-15" value="User" style="text;html=1;align=center;verticalAlign=middle;whiteSpace=wrap;rounded=0;" vertex="1" parent="1">
          <mxGeometry x="365" y="144" width="60" height="30" as="geometry" />
        </mxCell>
        <mxCell id="kzy50E7hEQIM3yluzYC2-25" value="" style="endArrow=classic;startArrow=classic;html=1;rounded=0;" edge="1" parent="1">
          <mxGeometry width="50" height="50" relative="1" as="geometry">
            <mxPoint x="200" y="123.5" as="sourcePoint" />
            <mxPoint x="280" y="123.5" as="targetPoint" />
          </mxGeometry>
        </mxCell>
        <mxCell id="kzy50E7hEQIM3yluzYC2-27" value="" style="endArrow=classic;html=1;rounded=0;" edge="1" parent="1">
          <mxGeometry width="50" height="50" relative="1" as="geometry">
            <mxPoint x="395.75" y="174" as="sourcePoint" />
            <mxPoint x="395.75" y="244" as="targetPoint" />
          </mxGeometry>
        </mxCell>
        <mxCell id="kzy50E7hEQIM3yluzYC2-45" value="" style="rounded=1;whiteSpace=wrap;html=1;" vertex="1" parent="1">
          <mxGeometry x="196.13" y="370" width="420" height="440" as="geometry" />
        </mxCell>
        <mxCell id="kzy50E7hEQIM3yluzYC2-30" value="" style="group" connectable="0" vertex="1" parent="1">
          <mxGeometry x="352" y="260" width="86" height="50" as="geometry" />
        </mxCell>
        <mxCell id="kzy50E7hEQIM3yluzYC2-16" value="" style="fontColor=#0066CC;verticalAlign=top;verticalLabelPosition=bottom;labelPosition=center;align=center;html=1;outlineConnect=0;fillColor=#CCCCCC;strokeColor=#6881B3;gradientColor=none;gradientDirection=north;strokeWidth=2;shape=mxgraph.networks.modem;movable=1;resizable=1;rotatable=1;deletable=1;editable=1;locked=0;connectable=1;" vertex="1" parent="kzy50E7hEQIM3yluzYC2-30">
          <mxGeometry x="5.5" width="75" height="20" as="geometry" />
        </mxCell>
        <mxCell id="kzy50E7hEQIM3yluzYC2-18" value="Port Fowarding" style="text;html=1;align=center;verticalAlign=middle;whiteSpace=wrap;rounded=0;movable=1;resizable=1;rotatable=1;deletable=1;editable=1;locked=0;connectable=1;" vertex="1" parent="kzy50E7hEQIM3yluzYC2-30">
          <mxGeometry y="20" width="86" height="30" as="geometry" />
        </mxCell>
        <mxCell id="kzy50E7hEQIM3yluzYC2-32" value="" style="endArrow=classic;html=1;rounded=0;" edge="1" parent="1">
          <mxGeometry width="50" height="50" relative="1" as="geometry">
            <mxPoint x="395.75" y="310" as="sourcePoint" />
            <mxPoint x="395.75" y="370" as="targetPoint" />
          </mxGeometry>
        </mxCell>
        <mxCell id="kzy50E7hEQIM3yluzYC2-37" value="" style="group" connectable="0" vertex="1" parent="1">
          <mxGeometry x="239.87" y="580" width="332.5" height="210" as="geometry" />
        </mxCell>
        <mxCell id="kzy50E7hEQIM3yluzYC2-17" value="" style="rounded=1;whiteSpace=wrap;html=1;" vertex="1" parent="kzy50E7hEQIM3yluzYC2-37">
          <mxGeometry width="332.5" height="210" as="geometry" />
        </mxCell>
        <mxCell id="kzy50E7hEQIM3yluzYC2-20" value="Container 1" style="sketch=0;outlineConnect=0;fontColor=#232F3E;gradientColor=none;strokeColor=#232F3E;fillColor=#ffffff;dashed=0;verticalLabelPosition=bottom;verticalAlign=top;align=center;html=1;fontSize=12;fontStyle=0;aspect=fixed;shape=mxgraph.aws4.resourceIcon;resIcon=mxgraph.aws4.container_1;" vertex="1" parent="kzy50E7hEQIM3yluzYC2-37">
          <mxGeometry x="30.120000000000005" width="60" height="60" as="geometry" />
        </mxCell>
        <mxCell id="kzy50E7hEQIM3yluzYC2-21" value="Container 2" style="sketch=0;outlineConnect=0;fontColor=#232F3E;gradientColor=none;strokeColor=#232F3E;fillColor=#ffffff;dashed=0;verticalLabelPosition=bottom;verticalAlign=top;align=center;html=1;fontSize=12;fontStyle=0;aspect=fixed;shape=mxgraph.aws4.resourceIcon;resIcon=mxgraph.aws4.container_2;" vertex="1" parent="kzy50E7hEQIM3yluzYC2-37">
          <mxGeometry x="125.62" width="60" height="60" as="geometry" />
        </mxCell>
        <mxCell id="kzy50E7hEQIM3yluzYC2-22" value="&lt;div&gt;Portainer Container&lt;/div&gt;" style="sketch=0;outlineConnect=0;fontColor=#232F3E;gradientColor=none;strokeColor=#232F3E;fillColor=#ffffff;dashed=0;verticalLabelPosition=bottom;verticalAlign=top;align=center;html=1;fontSize=12;fontStyle=0;aspect=fixed;shape=mxgraph.aws4.resourceIcon;resIcon=mxgraph.aws4.container_3;" vertex="1" parent="kzy50E7hEQIM3yluzYC2-37">
          <mxGeometry x="125.62" y="130" width="60" height="60" as="geometry" />
        </mxCell>
        <mxCell id="kzy50E7hEQIM3yluzYC2-24" value="Container 1" style="sketch=0;outlineConnect=0;fontColor=#232F3E;gradientColor=none;strokeColor=#232F3E;fillColor=#ffffff;dashed=0;verticalLabelPosition=bottom;verticalAlign=top;align=center;html=1;fontSize=12;fontStyle=0;aspect=fixed;shape=mxgraph.aws4.resourceIcon;resIcon=mxgraph.aws4.container_1;" vertex="1" parent="kzy50E7hEQIM3yluzYC2-37">
          <mxGeometry x="221.12" width="60" height="60" as="geometry" />
        </mxCell>
        <mxCell id="kzy50E7hEQIM3yluzYC2-41" value="" style="endArrow=classic;html=1;rounded=0;dashed=1;" edge="1" parent="kzy50E7hEQIM3yluzYC2-37" source="kzy50E7hEQIM3yluzYC2-22">
          <mxGeometry width="50" height="50" relative="1" as="geometry">
            <mxPoint x="90.12" y="150" as="sourcePoint" />
            <mxPoint x="50.120000000000005" y="90" as="targetPoint" />
            <Array as="points">
              <mxPoint x="50.129999999999995" y="160" />
            </Array>
          </mxGeometry>
        </mxCell>
        <mxCell id="kzy50E7hEQIM3yluzYC2-42" value="" style="endArrow=classic;html=1;rounded=0;dashed=1;" edge="1" parent="kzy50E7hEQIM3yluzYC2-37">
          <mxGeometry width="50" height="50" relative="1" as="geometry">
            <mxPoint x="155.12" y="140" as="sourcePoint" />
            <mxPoint x="155.12" y="90" as="targetPoint" />
          </mxGeometry>
        </mxCell>
        <mxCell id="kzy50E7hEQIM3yluzYC2-43" value="" style="endArrow=classic;html=1;rounded=0;dashed=1;" edge="1" parent="kzy50E7hEQIM3yluzYC2-37" source="kzy50E7hEQIM3yluzYC2-22">
          <mxGeometry width="50" height="50" relative="1" as="geometry">
            <mxPoint x="136" y="170" as="sourcePoint" />
            <mxPoint x="260.13" y="90" as="targetPoint" />
            <Array as="points">
              <mxPoint x="260.13" y="160" />
            </Array>
          </mxGeometry>
        </mxCell>
        <mxCell id="kzy50E7hEQIM3yluzYC2-38" value="" style="group" connectable="0" vertex="1" parent="1">
          <mxGeometry x="352" y="380" width="108.25" height="120" as="geometry" />
        </mxCell>
        <mxCell id="kzy50E7hEQIM3yluzYC2-35" value="" style="rounded=1;whiteSpace=wrap;html=1;rotation=90;" vertex="1" parent="kzy50E7hEQIM3yluzYC2-38">
          <mxGeometry x="-13.75" y="13.75" width="120" height="92.5" as="geometry" />
        </mxCell>
        <mxCell id="kzy50E7hEQIM3yluzYC2-31" value="" style="group" connectable="0" vertex="1" parent="kzy50E7hEQIM3yluzYC2-38">
          <mxGeometry y="15" width="108.25" height="90" as="geometry" />
        </mxCell>
        <mxCell id="kzy50E7hEQIM3yluzYC2-10" value="" style="sketch=0;pointerEvents=1;shadow=0;dashed=0;html=1;strokeColor=none;fillColor=#505050;labelPosition=center;verticalLabelPosition=bottom;verticalAlign=top;outlineConnect=0;align=center;shape=mxgraph.office.servers.reverse_proxy;" vertex="1" parent="kzy50E7hEQIM3yluzYC2-31">
          <mxGeometry x="25.5" width="45.5" height="50" as="geometry" />
        </mxCell>
        <mxCell id="kzy50E7hEQIM3yluzYC2-19" value="&lt;font style=&quot;font-size: 14px;&quot;&gt;Nginx&lt;/font&gt;&lt;br&gt;Reverse Proxy" style="text;html=1;align=center;verticalAlign=middle;whiteSpace=wrap;rounded=0;" vertex="1" parent="kzy50E7hEQIM3yluzYC2-31">
          <mxGeometry y="60" width="90" height="30" as="geometry" />
        </mxCell>
        <mxCell id="kzy50E7hEQIM3yluzYC2-39" value="" style="endArrow=classic;html=1;rounded=0;exitX=1.025;exitY=0.405;exitDx=0;exitDy=0;exitPerimeter=0;" edge="1" parent="1" source="kzy50E7hEQIM3yluzYC2-35">
          <mxGeometry width="50" height="50" relative="1" as="geometry">
            <mxPoint x="420" y="510" as="sourcePoint" />
            <mxPoint x="497.75" y="580" as="targetPoint" />
          </mxGeometry>
        </mxCell>
        <mxCell id="kzy50E7hEQIM3yluzYC2-47" value="" style="endArrow=classic;html=1;rounded=0;" edge="1" parent="1">
          <mxGeometry width="50" height="50" relative="1" as="geometry">
            <mxPoint x="389" y="503" as="sourcePoint" />
            <mxPoint x="300" y="580" as="targetPoint" />
          </mxGeometry>
        </mxCell>
        <mxCell id="kzy50E7hEQIM3yluzYC2-48" value="My PC" style="text;html=1;align=center;verticalAlign=middle;whiteSpace=wrap;rounded=0;" vertex="1" parent="1">
          <mxGeometry x="260" y="340" width="60" height="30" as="geometry" />
        </mxCell>
        <mxCell id="kzy50E7hEQIM3yluzYC2-49" value="Lets Encrypt" style="sketch=0;outlineConnect=0;fontColor=#232F3E;gradientColor=none;strokeColor=#232F3E;fillColor=#ffffff;dashed=0;verticalLabelPosition=bottom;verticalAlign=top;align=center;html=1;fontSize=12;fontStyle=0;aspect=fixed;shape=mxgraph.aws4.resourceIcon;resIcon=mxgraph.aws4.encrypted_data;" vertex="1" parent="1">
          <mxGeometry x="520" y="390" width="70" height="70" as="geometry" />
        </mxCell>
        <mxCell id="kzy50E7hEQIM3yluzYC2-51" value="" style="endArrow=classic;startArrow=classic;html=1;rounded=0;" edge="1" parent="1">
          <mxGeometry width="50" height="50" relative="1" as="geometry">
            <mxPoint x="460" y="430" as="sourcePoint" />
            <mxPoint x="520" y="430" as="targetPoint" />
          </mxGeometry>
        </mxCell>
      </root>
    </mxGraphModel>
  </diagram>
</mxfile>
